<svg width="240" height="75" viewBox="0 0 240 75" fill="none" xmlns="http://www.w3.org/2000/svg">
<path d="M1.3858 63.5886V51.631H28.8882V3.00355C28.8882 3.00355 44.432 -0.635698 53.202 3.00355C58.7516 5.30646 62.428 7.3341 65.5582 12.171C73.2964 24.1286 69.923 35.3379 60.3765 42.8622C51.5745 49.7997 31.6783 42.8622 31.6783 42.8622" stroke="white" stroke-width="2.7716" stroke-linecap="round"/>
<path d="M40.4472 45.2537L58.4756 72.3575L71.9355 58.8056" stroke="white" stroke-width="2.7716" stroke-linecap="round"/>
<path d="M95.0531 23.5215C104.77 23.5215 113.199 33.7997 113.199 47.247C113.198 60.6942 104.77 70.9716 95.0531 70.9716C85.3361 70.9713 76.9087 60.6939 76.9085 47.247C76.9085 33.7999 85.336 23.5218 95.0531 23.5215Z" stroke="white" stroke-width="2.7716"/>
<path d="M120.873 23.7301C120.873 23.7301 119.279 45.2537 120.873 55.617C122.467 65.9802 128.047 69.5675 130.439 70.7632C132.83 71.959 143.193 73.9519 148.375 70.7632C153.557 67.5745 156.347 63.5887 157.941 55.617C159.536 47.6452 157.941 23.7301 157.941 23.7301" stroke="white" stroke-width="2.7716" stroke-linecap="round"/>
<path d="M164.983 1.40924C164.983 1.40924 164.585 58.407 164.983 60.7986C165.382 63.1901 170.165 67.5745 171.759 68.7703C173.353 69.966 176.885 72.0144 180.528 71.959C184.026 71.9058 186.072 70.8317 188.898 68.7703C192.042 66.4769 193.485 64.4324 194.877 60.7986C195.729 58.5751 196.004 57.1999 196.073 54.8198" stroke="white" stroke-width="2.7716" stroke-linecap="round"/>
<path d="M166.002 24.5273H196.693" stroke="white" stroke-width="2.7716" stroke-linecap="round"/>
<path d="M238.384 56.2589C238.384 56.2589 236.073 63.3908 232.804 66.6221C229.879 69.5131 227.682 71.0657 223.636 71.8037C219.933 72.4795 217.552 72.0415 214.07 70.608C211.475 69.5395 210.102 68.58 208.091 66.6221C204.799 63.4151 203.766 60.6808 202.511 56.2589C201.528 52.7951 201.529 47.0914 201.529 47.0914M201.529 47.0914C201.529 47.0914 201.41 44.6763 201.529 43.9027C202.511 37.5253 207.294 30.7494 207.294 30.7494C207.294 30.7494 210.084 26.6981 214.07 25.5678C216.916 24.7609 220.739 24.1755 223.636 24.7706C227.592 25.5831 229.827 26.8255 232.804 29.5536C234.797 31.3798 236.548 33.9999 237.587 37.9239C238.463 41.2345 238.384 47.0914 238.384 47.0914H201.529Z" stroke="white" stroke-width="2.7716" stroke-linecap="round"/>
</svg>
